<svg xmlns:xlink="http://www.w3.org/1999/xlink" xmlns="http://www.w3.org/2000/svg" class="svg-bc-right-top standalone" width="76.54495121979852" viewBox="65.00000000000003 179.18426526475162 76.54495121979852 111.63146947049677" height="111.63146947049677" ><g data-paper-data="{&quot;fillRule&quot;:&quot;evenodd&quot;,&quot;fillRuleOriginal&quot;:&quot;evenodd&quot;,&quot;isIcon&quot;:true,&quot;iconStyle&quot;:&quot;standalone&quot;,&quot;selectedEffects&quot;:{&quot;container&quot;:&quot;&quot;,&quot;transformation&quot;:&quot;&quot;,&quot;pattern&quot;:&quot;&quot;},&quot;bounds&quot;:{&quot;x&quot;:65.00000000000003,&quot;y&quot;:179.18426526475162,&quot;width&quot;:76.54495121979852,&quot;height&quot;:111.63146947049677},&quot;iconType&quot;:&quot;icon&quot;,&quot;isDetailed&quot;:false,&quot;source&quot;:&quot;ai&quot;,&quot;rawIconId&quot;:&quot;LquT9YVLKVuXZhqyRtmFcJwJD6jM7tjQ6ZT6w3cvv_&quot;,&quot;suitableAsStandaloneIcon&quot;:true}" fill="#C41515" fill-rule="evenodd"><path d="M100.41756,184.308c1.693,-4.19265 2.0146,-4.81193 2.61571,-5.03943c0.95476,-0.3611 1.31429,0.26758 3.01819,5.28068c4.29541,12.63725 9.24666,21.8465 17.35869,32.28666c1.21945,1.56916 3.69888,4.73147 5.50984,7.02755c6.44279,8.16785 8.94731,12.42292 10.9002,18.51949c4.15653,12.97629 0.67742,27.07216 -9.10974,36.9075c-5.22095,5.2469 -11.1396,8.61503 -18.33089,10.43231c-3.54321,0.89523 -6.35013,1.18478 -10.36799,1.06856c-5.89575,-0.1705 -10.59823,-1.306 -15.71246,-3.7946c-9.1762,-4.46526 -16.40296,-12.65643 -19.43008,-22.02345c-3.13288,-9.69406 -2.32618,-19.44895 2.41179,-29.16263c2.11149,-4.32877 4.00092,-7.18213 10.53012,-15.90051c6.32296,-8.44322 8.62301,-11.7902 11.63728,-16.9355c3.2057,-5.47182 5.93064,-11.14313 8.96933,-18.66664zM95.46587,209.84301c4.17027,-7.3365 7.08903,-15.63266 7.90752,-22.47704c0.12428,-1.0402 0.28257,-1.8913 0.35147,-1.8913c0.0689,0 0.35844,0.95271 0.64319,2.11694c2.18641,8.93383 5.66246,16.68683 11.28372,25.16799c2.38242,3.59467 4.54768,6.4912 9.2133,12.32525c6.15587,7.69734 7.40104,9.48453 9.47407,13.59877c3.61756,7.17995 4.59215,14.07734 3.05046,21.58935c-0.79712,3.88443 -2.52893,8.11923 -4.61613,11.28873c-2.46614,3.74467 -6.32266,7.69472 -9.67662,9.91056c-2.44564,1.61626 -6.28494,3.51704 -8.66605,4.29062c-7.00292,2.27514 -14.63462,2.33401 -21.42888,0.16526c-2.29607,-0.7328 -2.8453,-1.0169 -2.8453,-1.4704c0,-0.66434 0.50954,-0.72125 2.29695,-0.25706c5.34916,1.3895 11.91819,1.33827 17.44155,-0.13583c6.94949,-1.85457 12.99416,-5.68776 17.32098,-10.98327c2.76418,-3.38339 4.92269,-7.6339 3.87679,-7.6339c-0.29892,0 -0.33228,0.04339 -2.01525,2.61309c-1.4462,2.20821 -4.20144,5.09689 -6.53197,6.84876c-2.07456,1.55935 -5.62736,3.41152 -7.95505,4.14737c-2.67065,0.84465 -4.37434,1.11152 -7.25975,1.1379c-2.52436,0.02311 -2.6942,0.04797 -2.96521,0.43497c-0.41382,0.59086 -2.03793,0.89502 -4.7064,0.88128c-2.35015,-0.01199 -3.20134,-0.17922 -5.83318,-1.14662c-2.92095,-1.07315 -5.80854,-2.79515 -9.50276,-5.66617c-5.71873,-4.44433 -9.87941,-11.246 -11.01107,-18.00057c-0.42095,-2.5128 -0.42076,-6.58866 0.0002,-9.03212c1.11341,-6.46132 4.02311,-12.211 10.76006,-21.2634c1.23233,-1.65594 2.66084,-3.59227 3.17452,-4.30283c0.51368,-0.71078 1.16515,-1.59991 1.44794,-1.97579c1.05439,-1.40237 5.94612,-8.82957 6.77093,-10.28056zM84.51149,245.16915c0,-4.9894 3.52173,-9.33518 8.27959,-10.21711c0.46572,-0.08634 1.57091,-0.12559 2.45567,-0.08699c2.76898,0.11991 4.87036,1.07053 7.03235,3.18128c0.59566,0.58149 1.1174,1.05745 1.15905,1.05745c0.04208,0 0.64842,-0.57996 1.34764,-1.28856c1.48696,-1.50724 3.06899,-2.34644 5.27916,-2.80082c6.03442,-1.24081 12.09414,3.73398 12.07778,9.91515c-0.01592,5.90644 -4.13996,11.42849 -15.08028,20.19091c-3.2892,2.63424 -3.81269,2.87604 -4.74303,2.1888c-1.68951,-1.24822 -7.78346,-6.30631 -9.3402,-7.75272c-5.69255,-5.28941 -8.46775,-10.00475 -8.46775,-14.38738zM87.91222,241.52346c0.87343,-1.71241 2.85969,-3.35418 4.6774,-3.86633c0.49602,-0.13997 1.57679,-0.22065 2.55357,-0.19078c1.43595,0.04383 1.88335,0.14063 2.93992,0.63534c1.9965,0.93491 3.42024,2.46135 4.75218,5.09471c0.27494,0.54333 0.56186,0.98724 0.63774,0.98615c0.07588,-0.00109 0.49296,-0.74196 0.92707,-1.64656c1.17257,-2.44412 2.81106,-3.96553 5.10082,-4.73692c4.52914,-1.52556 9.4213,1.53907 10.00802,6.26946c0.32072,2.58715 -0.61136,5.41107 -2.83352,8.58363c-1.36552,1.94941 -5.45948,5.97686 -9.43177,9.27828c-1.83145,1.52207 -3.38187,2.8514 -3.44532,2.95409c-0.23548,0.3809 -0.65038,0.14957 -2.56011,-1.42941c-6.17963,-5.10867 -9.0803,-7.87831 -11.1178,-10.6148c-3.19502,-4.29171 -3.91369,-7.97402 -2.20821,-11.31686z" data-paper-data="{&quot;isPathIcon&quot;:true}" style="" fill="#C41515"></path></g></svg>